<?xml version="1.0" encoding="UTF-8" standalone="no"?>
<!-- Generator: Adobe Illustrator 25.2.2, SVG Export Plug-In . SVG Version: 6.00 Build 0)  -->

<svg
   version="1.1"
   id="Livello_1"
   x="0px"
   y="0px"
   width="2000px"
   height="2000px"
   viewBox="0 0 2000 2000"
   style="enable-background:new 0 0 2000 2000;"
   xml:space="preserve"
   sodipodi:docname="dayton.svg"
   inkscape:version="1.2.2 (732a01da63, 2022-12-09)"
   xmlns:inkscape="http://www.inkscape.org/namespaces/inkscape"
   xmlns:sodipodi="http://sodipodi.sourceforge.net/DTD/sodipodi-0.dtd"
   xmlns="http://www.w3.org/2000/svg"
   xmlns:svg="http://www.w3.org/2000/svg"
   xmlns:ns="&amp;ns_sfw;"><defs
   id="defs65" /><sodipodi:namedview
   id="namedview63"
   pagecolor="#ffffff"
   bordercolor="#000000"
   borderopacity="0.25"
   inkscape:showpageshadow="2"
   inkscape:pageopacity="0.0"
   inkscape:pagecheckerboard="0"
   inkscape:deskcolor="#d1d1d1"
   showgrid="false"
   inkscape:zoom="0.61"
   inkscape:cx="1000"
   inkscape:cy="1000"
   inkscape:window-width="2560"
   inkscape:window-height="1494"
   inkscape:window-x="3829"
   inkscape:window-y="-11"
   inkscape:window-maximized="1"
   inkscape:current-layer="Livello_1" />
<style
   type="text/css"
   id="style38">
	.st0{fill:none;}
</style>
<metadata
   id="metadata40">
	<ns:sfw>
		<ns:slices />
		<ns:sliceSourceBounds
   bottomLeftOrigin="true"
   height="2000"
   width="2000"
   x="0"
   y="-2000" />
		<ns:optimizationSettings>
			<ns:targetSettings
   fileFormat="PNG24Format"
   targetSettingsID="0">
				<ns:PNG24Format
   filtered="false"
   interlaced="false"
   matteColor="#FFFFFF"
   noMatteColor="false"
   transparency="true">
					</ns:PNG24Format>
			</ns:targetSettings>
		</ns:optimizationSettings>
	</ns:sfw>
</metadata>
<g
   id="g44">
	<rect
   class="st0"
   width="2000"
   height="2000"
   id="rect42" />
</g>
<polygon
   points="1906.1,1013.4 1823.7,985.5 1823.7,1080.9 1803,1080.9 1803,1031.6 1780.5,1031.6 1780.5,867.7 1624.8,867.7 1624.8,1031.6 1604.5,1031.6 1604.5,1013.4 1588.5,1013.4 1588.5,910.9 1553,910.9 1553,827.9 1536.6,812.4 1526.2,812.4 1519.3,812.4 1508.9,812.4 1492.5,827.9 1492.5,910.9 1457,910.9 1457,1013.4 1439.7,1013.4 1439.7,1064.7 1419,1064.7 1419,1052.8 1400.8,1052.8 1400.8,827.9 1386.1,827.9 1386.1,782.1 1338,752.7 1338,739.7 1330.8,739.7 1323,739.7 1315.8,739.7 1315.8,752.7 1267.7,782.1 1267.7,827.9 1253,827.9 1253,1052.8 1234.8,1052.8 1234.8,1064.7 1221.8,1064.7 1221.8,1001.8 1208,1001.8 1208,784.7 1173.4,784.7 1173.4,760.5 1119.8,760.5 1100.7,760.5 1047.1,760.5 1047.1,784.7 1012.5,784.7 1012.5,1001.8 998.1,1001.8 998.1,1022.5 983.1,1022.5 983.1,855.6 958.1,855.6 937.7,835.3 920,835.3 915.7,835.3 898,835.3 877.6,855.6 852.6,855.6 852.6,1022.5 839.8,1022.5 839.8,1040 826.6,1040 826.6,750.1 672.7,750.1 672.7,1040 665.3,1040 665.3,1023.2 652.8,1023.2 652.8,930.8 534.3,930.8 534.3,1023.2 525.9,1023.2 525.9,1064.7 515.3,1064.7 515.3,840 496.3,840 496.3,857.3 464.3,857.3 464.3,827.9 447.8,827.9 433.1,827.9 416.7,827.9 416.7,857.3 384.7,857.3 384.7,840 365.7,840 365.7,1064.7 352.1,1064.7 352.1,1092.6 340.6,1092.6 340.6,1027.7 318.1,1027.7 318.1,989.6 280.9,951.6 280.9,926.5 271.4,926.5 262.8,926.5 253.2,926.5 253.2,951.6 216.1,989.6 216.1,1027.7 193.6,1027.7 193.6,1092.6 167.2,1092.6 167.2,1025.1 101.7,1001.8 101.7,1110.1 83.5,1110.1 83.5,1133.2 193.6,1133.2 262.8,1133.2 271.4,1133.2 340.6,1133.2 365.7,1133.2 433.1,1133.2 447.8,1133.2 515.3,1133.2 534.3,1133.2 652.8,1133.2 672.7,1133.2 826.6,1133.2 852.6,1133.2 915.7,1133.2 920,1133.2 983.1,1133.2 1012.5,1133.2 1100.7,1133.2 1119.8,1133.2 1208,1133.2 1234.8,1133.2 1323,1133.2 1330.8,1133.2 1419,1133.2 1457,1133.2 1519.3,1133.2 1526.2,1133.2 1588.5,1133.2 1624.8,1133.2 1780.5,1133.2 1916.5,1133.2 1916.5,1095.2 1906.1,1095.2 "
   id="polygon46"
   transform="translate(6.557377,-121.31148)" />

</svg>
