<svg xmlns="http://www.w3.org/2000/svg" version="1.1" xmlns:xlink="http://www.w3.org/1999/xlink" xmlns:svgjs="http://svgjs.dev/svgjs" width="2000" height="1247" viewBox="0 0 2000 1247"><g transform="matrix(1,0,0,1,-1.2121212121212466,0.504858299595071)"><svg viewBox="0 0 396 247" data-background-color="#f2f2f2" preserveAspectRatio="xMidYMid meet" height="1247" width="2000" xmlns="http://www.w3.org/2000/svg" xmlns:xlink="http://www.w3.org/1999/xlink"><g id="tight-bounds" transform="matrix(1,0,0,1,0.2400000000000091,-0.09999999999999432)"><svg viewBox="0 0 395.52 247.2" height="247.2" width="395.52"><g><svg></svg></g><g><svg viewBox="0 0 395.52 247.2" height="247.2" width="395.52"><g transform="matrix(1,0,0,1,75.54432,83.10834036363636)"><svg viewBox="0 0 244.43135999999998 80.98331927272727" height="80.98331927272727" width="244.43135999999998"><g><svg viewBox="0 0 244.43135999999998 80.98331927272727" height="80.98331927272727" width="244.43135999999998"><g><svg viewBox="0 0 244.43135999999998 80.98331927272727" height="80.98331927272727" width="244.43135999999998"><g><svg viewBox="0 0 244.43135999999998 80.98331927272727" height="80.98331927272727" width="244.43135999999998"><g><svg viewBox="0 0 244.43135999999998 80.98331927272727" height="80.98331927272727" width="244.43135999999998"><g><svg viewBox="0 0 244.43135999999998 80.98331927272727" height="80.98331927272727" width="244.43135999999998"><g transform="matrix(1,0,0,1,0,0)"><svg width="244.43135999999998" viewBox="0.88 -35.55 108.76 36.04" height="80.98331927272727" data-palette-color="#0d0d0d"><path d="M0.88-35.55L5.64 0 11.52 0 14.77-20.46 15.04-22.22 15.31-20.46 18.68 0 24.54 0 29.35-35.55 23.46-35.55 21.02-14.67 20.85-13.18 20.63-14.65 17.36-35.55 12.67-35.55 9.55-14.77 9.3-13.31 9.16-14.7 6.74-35.55 0.88-35.55ZM40.7-3.71L40.7-3.71Q40.7-1.93 41.88-0.72 43.06 0.49 45.14 0.49L45.14 0.49Q47.21 0.49 48.42-0.71 49.63-1.9 49.63-3.71L49.63-3.71Q49.63-5.54 48.45-6.77 47.26-8.01 45.14-8.01L45.14-8.01Q43.02-8.01 41.86-6.76 40.7-5.52 40.7-3.71ZM63.2-35.55L63.2 0 72.48 0Q74.9 0 77.01-0.59 79.12-1.17 80.85-2.27L80.85-2.27Q82.37-3.22 83.64-4.63 84.91-6.03 85.83-7.71L85.83-7.71Q86.79-9.52 87.3-11.71 87.81-13.89 87.81-16.31L87.81-16.31 87.81-19.19Q87.81-21.73 87.26-23.97 86.71-26.22 85.69-28.08L85.69-28.08Q84.76-29.74 83.45-31.1 82.15-32.47 80.49-33.4L80.49-33.4Q78.75-34.42 76.68-34.99 74.6-35.55 72.21-35.55L72.21-35.55 63.2-35.55ZM69.62-5.13L69.62-30.37 72.21-30.37Q73.55-30.37 74.69-30.07 75.83-29.76 76.75-29.22L76.75-29.22Q78-28.52 78.91-27.38 79.83-26.25 80.39-24.8L80.39-24.8Q80.85-23.61 81.09-22.2 81.32-20.8 81.34-19.24L81.34-19.24 81.34-16.31Q81.32-14.67 81.09-13.26 80.85-11.84 80.41-10.67L80.41-10.67Q79.88-9.28 79.08-8.23 78.29-7.18 77.27-6.49L77.27-6.49Q76.29-5.83 75.09-5.48 73.9-5.13 72.48-5.13L72.48-5.13 69.62-5.13ZM100.7-3.71L100.7-3.71Q100.7-1.93 101.88-0.72 103.07 0.49 105.14 0.49L105.14 0.49Q107.22 0.49 108.43-0.71 109.64-1.9 109.64-3.71L109.64-3.71Q109.64-5.54 108.45-6.77 107.27-8.01 105.14-8.01L105.14-8.01Q103.02-8.01 101.86-6.76 100.7-5.52 100.7-3.71Z" opacity="1" transform="matrix(1,0,0,1,0,0)" fill="#0d0d0d" class="undefined-text-0" data-fill-palette-color="primary" id="text-0"></path></svg></g></svg></g></svg></g></svg></g></svg></g></svg></g></svg></g><path d="M213.486 77.108L213.486 22.17 10.627 22.17 10.627 225.03 213.486 225.03 213.486 170.092 206.183 170.092 206.183 217.727 17.93 217.727 17.93 29.473 206.183 29.473 206.183 77.108Z" fill="#0d0d0d" stroke="transparent" data-fill-palette-color="primary"></path></svg></g><defs></defs></svg><rect width="395.52" height="247.2" fill="none" stroke="none" visibility="hidden"></rect></g></svg></g></svg>